<svg width="41" height="41" viewBox="0 0 41 41" fill="none" xmlns="http://www.w3.org/2000/svg">
<circle cx="20.5" cy="20.5" r="20.5" fill="#D9D9D9"/>
<path d="M21 20C19.625 20 18.4479 19.5104 17.4688 18.5312C16.4896 17.5521 16 16.375 16 15C16 13.625 16.4896 12.4479 17.4688 11.4688C18.4479 10.4896 19.625 10 21 10C22.375 10 23.5521 10.4896 24.5312 11.4688C25.5104 12.4479 26 13.625 26 15C26 16.375 25.5104 17.5521 24.5312 18.5312C23.5521 19.5104 22.375 20 21 20ZM13.5 30C12.8125 30 12.2242 29.7554 11.735 29.2663C11.245 28.7763 11 28.1875 11 27.5V26.5C11 25.7917 11.1825 25.1404 11.5475 24.5463C11.9117 23.9529 12.3958 23.5 13 23.1875C14.2917 22.5417 15.6042 22.0571 16.9375 21.7338C18.2708 21.4113 19.625 21.25 21 21.25C22.375 21.25 23.7292 21.4113 25.0625 21.7338C26.3958 22.0571 27.7083 22.5417 29 23.1875C29.6042 23.5 30.0883 23.9529 30.4525 24.5463C30.8175 25.1404 31 25.7917 31 26.5V27.5C31 28.1875 30.7554 28.7763 30.2663 29.2663C29.7763 29.7554 29.1875 30 28.5 30H13.5Z" fill="#22A1E7"/>
</svg>
